<?xml version="1.0" encoding="utf-8"?>
<!-- Generator: Adobe Illustrator 20.0.0, SVG Export Plug-In . SVG Version: 6.00 Build 0)  -->
<svg version="1.1" id="Layer_1" xmlns="http://www.w3.org/2000/svg" xmlns:xlink="http://www.w3.org/1999/xlink" x="0px" y="0px"
	 viewBox="0 0 612 792" style="enable-background:new 0 0 612 792;" xml:space="preserve">
<style type="text/css">
	.st0{fill:#526656;}
	.st1{fill:none;stroke:#333333;stroke-width:0.5;stroke-linecap:round;stroke-linejoin:round;stroke-miterlimit:10;}
</style>
<g>
	<path class="st0" d="M336.5,383.3c-0.7-2.8-0.9-4.7-1.4-5.4c-0.6-0.8-3.6-2-4.8-1.9c-1.2,0.1-0.7-1.7-0.6-3.3
		c0.1-1.6-1-4.6-2.8-5.9c-1.8-1.4-4.8-2.3-5.5-1.9c-0.7,0.4-3.2,3.2-3.5,2.9c-0.3-0.3,0.8-8,1.1-8.9c0.3-0.9,1.5-5.1,1.3-7.2
		c-0.2-2.1,0.8-7.3,0.9-9.9c0.1-2.6,1.5-8,0.9-9.4c-0.7-1.4-4.5-3.7-6.7-2.7c-2.2,1-3.3,6.1-3.4,7.4c-0.1,1.3-2.1,13.3-2.9,15.5
		c-0.8,2.3-1.1,12.3-1.3,13.6c-0.2,1.3-2.2,2-3.7,1.9c-1.5-0.1-4.3-3.1-5.1-6c-0.8-3-2.5-9.8-3.4-12.6c-0.9-2.8-2-4.9-2.3-7.2
		c-0.3-2.3-1.7-9.2-2.5-10.5c-0.9-1.3-6.2-1.8-7.5,0.8c-1.3,2.6-0.1,11.3,0.4,13.6c0.6,2.3,1.9,11.4,2.4,13.2
		c0.6,1.8,2.3,12.1,2.6,13.9c0.3,1.8,0.1,8.9-0.1,10.3c-0.2,1.4-2.3,5.8-2.3,5.8c-0.7,0.4-6.2,5.1-6.6,7.3c-0.4,2.2,2,8.9,2.6,9.7
		c0.7,0.8,2,8.1,2.9,9.7c0.9,1.6,2.6,7.5,2.6,8.7c0,0.3-0.1,1.5-0.2,3c2.8,0.6,5.7,1.4,7.5,1.9c2.1,0.6,7.2,1.7,9.5,2.1
		c2.4,0.4,4.3-0.3,6.1,0.3c1.8,0.6,5.3,1.9,6.5,2.4c1.2,0.4,5.4,0,8.4,1.5c0.1,0,0.2,0.1,0.2,0.2c0-0.1,0-0.2,0-0.2
		c-0.4-2.4-1.1-9.7-1.1-9.7s7.1-9.1,8.4-15.6c1.3-6.5,2.9-17.4,2.6-19C335.6,389.8,337.1,386.1,336.5,383.3z"/>
	<path class="st1" d="M287.3,347.8c-0.1,0.1-0.1,0.1-0.2,0.2c1.2-1.2,3.2-1.2,4.8-1.4"/>
	<path class="st1" d="M290.4,360c0.2-0.6,1.2-1,1.8-1.2"/>
	<path class="st1" d="M312.2,357.8c1.4-0.4,3.3,0.2,4.5,0.8"/>
	<path class="st1" d="M315.6,349.1c0.2,0,0.3,0.1,0.2,0.2"/>
	<path class="st1" d="M333.7,380.3c0.5,0.9,0.9,2,0.7,3.1"/>
	<path class="st1" d="M334.3,386c0,0.6-0.4,1.1-0.2,1.6"/>
	<path class="st1" d="M334,390.2c0.1,0.1,0.1,0.2,0.2,0.3"/>
	<path class="st1" d="M323.1,431.1c0,0.4,0,0.8-0.2,1.2"/>
</g>
</svg>
